# File created by Blade
# Date/Time:  Wed Jan 21 19:03:07 2015
# Frame Rate: 120.000 fps
#------------------------------------------------------
:FULLY-SPECIFIED
:DEGREES
2198
root -3.798393 29.483224 -7.260529 131.948759 17.138736 4.479230
RightUpLeg -118.441383 -15.103242 28.913961
RightLeg -10.242732 -0.000000 0.000000
RightFoot -9.460712 -2.792650 45.269843
RightToeBase 22.308773 -0.000000 -0.000000
LeftUpLeg -134.674318 8.947191 -18.205039
LeftLeg -10.962577 -0.000000 0.000000
LeftFoot 9.061182 -4.784630 -24.306173
LeftToeBase 8.645451 -0.000000 -0.000000
Spine 26.921671 14.351664 -16.786545
RightShoulder 3.691616 48.305612 -56.220541
RightArm 31.415388 14.105983 95.380245
RightForeArm 48.507156 -0.000000 113.369752
RightHand 11.153016 -0.000000 -35.106687
RightHandThumb1 -24.326973 -0.000000 -32.862282
LeftShoulder 10.095328 26.576858 17.649640
LeftArm 125.089515 -17.081000 -94.488982
LeftForeArm -26.495289 -0.000000 95.045080
LeftHand -26.032326 -0.000000 -6.557929
LeftHandThumb1 -26.253704 0.000000 33.147579
Head 10.761682 20.698640 -43.564718
2199
root -3.799855 29.484432 -7.261045 131.934049 17.099700 4.467634
RightUpLeg -118.452288 -15.111146 28.884979
RightLeg -10.236755 -0.000000 0.000000
RightFoot -9.464037 -2.798285 45.257423
RightToeBase 22.333999 -0.000000 -0.000000
LeftUpLeg -134.696644 8.963441 -18.220617
LeftLeg -10.873545 -0.000000 0.000000
LeftFoot 8.952254 -4.747430 -24.517949
LeftToeBase 8.918634 -0.000000 -0.000000
Spine 26.931990 14.361139 -16.779441
RightShoulder 3.612372 48.324223 -56.246713
RightArm 31.353075 14.051568 95.248718
RightForeArm 48.487187 -0.000000 113.294431
RightHand 10.650121 0.000000 -34.970872
RightHandThumb1 -24.326973 -0.000000 -32.862282
LeftShoulder 10.072232 26.434304 17.640728
LeftArm 124.901814 -17.078571 -94.492963
LeftForeArm -26.448233 -0.000000 95.025260
LeftHand -25.974389 0.000000 -6.686154
LeftHandThumb1 -26.253704 0.000000 33.147579
Head 10.667761 20.741365 -43.630323
2200
root -3.801717 29.484766 -7.261710 131.917448 17.063842 4.452073
RightUpLeg -118.451236 -15.108692 28.859745
RightLeg -10.249616 -0.000000 0.000000
RightFoot -9.449470 -2.796306 45.230592
RightToeBase 22.305014 -0.000000 -0.000000
LeftUpLeg -134.711446 8.996966 -18.222028
LeftLeg -10.797090 -0.000000 0.000000
LeftFoot 8.893417 -4.722886 -24.481984
LeftToeBase 8.885914 -0.000000 -0.000000
Spine 26.921000 14.360204 -16.780873
RightShoulder 3.594283 48.338540 -56.228666
RightArm 31.323708 13.974915 95.133681
RightForeArm 48.656377 0.000000 113.162085
RightHand 10.589489 -0.000000 -34.784601
RightHandThumb1 -24.326973 -0.000000 -32.862282
LeftShoulder 10.077690 26.309876 17.631283
LeftArm 124.720238 -17.141300 -94.487288
LeftForeArm -26.505132 -0.000000 94.999558
LeftHand -25.915057 -0.000000 -6.719995
LeftHandThumb1 -26.253704 0.000000 33.147579
Head 10.549049 20.699067 -43.741399
2201
root -3.804266 29.484872 -7.264166 131.889062 17.013815 4.434571
RightUpLeg -118.461264 -15.109774 28.838528
RightLeg -10.246080 -0.000000 0.000000
RightFoot -9.421232 -2.786090 45.189478
RightToeBase 22.284899 -0.000000 -0.000000
LeftUpLeg -134.717196 8.997451 -18.256242
LeftLeg -10.718755 -0.000000 0.000000
LeftFoot 8.797922 -4.724411 -24.422952
LeftToeBase 8.982806 -0.000000 -0.000000
Spine 26.931693 14.350712 -16.788126
RightShoulder 3.551448 48.355477 -56.232499
RightArm 31.307296 13.895812 95.027690
RightForeArm 48.717583 -0.000000 113.041590
RightHand 10.331253 0.000000 -34.656400
RightHandThumb1 -24.326973 -0.000000 -32.862282
LeftShoulder 10.057556 26.136873 17.588993
LeftArm 124.504746 -17.205371 -94.458074
LeftForeArm -26.529956 -0.000000 94.963987
LeftHand -25.868215 -0.000000 -6.735499
LeftHandThumb1 -26.253704 0.000000 33.147579
Head 10.326029 20.572351 -43.929310
2202
root -3.808218 29.484135 -7.266467 131.861763 16.971498 4.415202
RightUpLeg -118.469707 -15.087698 28.840220
RightLeg -10.252276 -0.000000 0.000000
RightFoot -9.308139 -2.780804 44.944829
RightToeBase 21.990710 -0.000000 -0.000000
LeftUpLeg -134.723872 9.017540 -18.280834
LeftLeg -10.652742 -0.000000 0.000000
LeftFoot 8.738284 -4.720942 -24.392620
LeftToeBase 8.963093 -0.000000 -0.000000
Spine 26.897569 14.338461 -16.824318
RightShoulder 3.604376 48.354793 -55.993793
RightArm 31.390709 13.725015 94.857095
RightForeArm 48.773054 -0.000000 112.820191
RightHand 9.971181 -0.000000 -34.513760
RightHandThumb1 -24.326973 -0.000000 -32.862282
LeftShoulder 10.095873 25.983291 17.610449
LeftArm 124.270004 -17.306704 -94.459607
LeftForeArm -26.504749 -0.000000 94.953873
LeftHand -25.816643 -0.000000 -6.744065
LeftHandThumb1 -26.253704 0.000000 33.147579
Head 10.249947 20.604233 -43.979235
